<?xml version="1.0" encoding="UTF-8" standalone="no"?>
<!DOCTYPE svg PUBLIC "-//W3C//DTD SVG 1.1//EN" "http://www.w3.org/Graphics/SVG/1.1/DTD/svg11.dtd">
<svg xmlns="http://www.w3.org/2000/svg" version="1.1" viewBox="0.00 0.00 108.00 54.00">
<g stroke-width="2.00" fill="none" stroke-linecap="butt">
<path stroke="#80dbff" vector-effect="non-scaling-stroke" d="
  M 19.96 7.75
  Q 19.97 8.75 19.69 8.44"
/>
<path stroke="#00a5e5" stroke-opacity="0.553" vector-effect="non-scaling-stroke" d="
  M 19.69 8.44
  Q 18.99 10.65 16.93 10.55
  Q 16.41 10.53 16.44 11.05
  Q 16.52 12.99 18.22 13.54
  Q 18.74 13.70 19.14 14.08
  L 23.55 18.36"
/>
<path stroke="#80dbff" vector-effect="non-scaling-stroke" d="
  M 23.55 18.36
  L 23.62 23.17"
/>
<path stroke="#0099d4" stroke-opacity="0.596" vector-effect="non-scaling-stroke" d="
  M 23.62 23.17
  L 14.61 13.31
  A 0.69 0.69 0.0 0 0 13.53 13.39
  L 11.77 15.99
  Q 11.14 16.91 11.00 15.80
  L 10.89 14.95
  Q 10.82 14.44 10.45 14.80
  Q 10.10 15.13 9.99 15.74"
/>
<path stroke="#00a5e5" stroke-opacity="0.553" vector-effect="non-scaling-stroke" d="
  M 9.99 15.74
  Q 9.09 16.11 8.21 15.37"
/>
<path stroke="#00a5e5" stroke-opacity="0.553" vector-effect="non-scaling-stroke" d="
  M 8.02 14.42
  Q 7.94 14.27 8.13 14.07
  Q 8.22 13.96 8.42 13.91
  Q 11.29 13.20 11.41 10.29
  Q 11.43 9.81 11.09 9.48
  L 4.38 2.84"
/>
<path stroke="#e6e6e6" stroke-opacity="0.557" vector-effect="non-scaling-stroke" d="
  M 34.43 9.18
  L 32.02 10.71
  Q 31.56 11.00 31.67 11.53
  Q 31.99 12.96 31.29 14.17
  Q 31.04 14.62 31.07 15.13
  L 31.80 27.22"
/>
<path stroke="#80dbff" vector-effect="non-scaling-stroke" d="
  M 31.80 27.22
  L 31.78 32.30"
/>
<path stroke="#e6e6e6" stroke-opacity="0.557" vector-effect="non-scaling-stroke" d="
  M 31.78 32.30
  Q 31.56 33.11 31.78 33.84
  Q 31.92 34.31 32.39 34.45
  Q 33.04 34.63 33.65 34.28"
/>
<path stroke="#80dbff" vector-effect="non-scaling-stroke" d="
  M 33.65 34.28
  L 37.41 38.17"
/>
<path stroke="#d5d5d5" stroke-opacity="0.600" vector-effect="non-scaling-stroke" d="
  M 37.41 38.17
  L 23.56 37.99"
/>
<path stroke="#e6e6e6" stroke-opacity="0.557" vector-effect="non-scaling-stroke" d="
  M 23.56 37.99
  L 19.15 37.94"
/>
<path stroke="#e6e6e6" stroke-opacity="0.557" vector-effect="non-scaling-stroke" d="
  M 21.20 36.34
  Q 24.90 34.63 23.39 27.54"
/>
<path stroke="#d5d5d5" stroke-opacity="0.600" vector-effect="non-scaling-stroke" d="
  M 23.39 27.54
  L 23.62 23.17"
/>
<path stroke="#e6e6e6" stroke-opacity="0.557" vector-effect="non-scaling-stroke" d="
  M 23.55 18.36
  L 23.51 11.45
  Q 23.51 10.90 23.05 10.60
  L 19.69 8.44"
/>
<path stroke="#00a5e5" stroke-opacity="0.553" vector-effect="non-scaling-stroke" d="
  M 54.75 25.70
  C 47.62 22.68 45.09 27.86 46.12 33.72
  C 47.00 38.67 50.12 38.19 54.07 37.75
  Q 54.45 37.70 54.47 37.32
  L 54.67 31.35
  Q 54.69 30.77 54.11 30.76
  L 51.78 30.74
  Q 51.30 30.73 51.50 31.17
  Q 52.57 33.62 51.66 36.17
  A 0.63 0.62 -67.7 0 1 50.81 36.53
  C 47.73 35.07 48.64 30.04 49.41 27.30
  A 1.49 1.48 -60.1 0 1 51.86 26.63
  L 54.00 28.69
  Q 54.25 28.92 54.55 28.76
  Q 54.69 28.69 54.81 28.58"
/>
<path stroke="#00a5e5" stroke-opacity="0.553" vector-effect="non-scaling-stroke" d="
  M 42.55 41.78
  Q 43.91 43.68 45.66 44.59
  Q 46.58 45.08 45.99 44.22
  L 41.87 38.26"
/>
<path stroke="#e6e6e6" stroke-opacity="0.557" vector-effect="non-scaling-stroke" d="
  M 41.87 38.26
  Q 42.50 38.22 42.97 37.97
  Q 43.55 37.65 43.08 37.18
  Q 41.70 35.79 42.92 34.34
  Q 43.26 33.94 43.24 33.41
  L 42.73 22.36"
/>
<path stroke="#0099d4" stroke-opacity="0.596" vector-effect="non-scaling-stroke" d="
  M 42.55 41.78
  L 37.41 38.17"
/>
<path stroke="#00a5e5" stroke-opacity="0.553" vector-effect="non-scaling-stroke" d="
  M 33.65 34.28
  L 31.78 32.30"
/>
<path stroke="#00a5e5" stroke-opacity="0.553" vector-effect="non-scaling-stroke" d="
  M 34.03 29.26
  L 31.80 27.22"
/>
<path stroke="#80dbff" vector-effect="non-scaling-stroke" d="
  M 41.87 38.26
  Q 39.18 36.12 37.50 32.66"
/>
<path stroke="#e6e6e6" stroke-opacity="0.557" vector-effect="non-scaling-stroke" d="
  M 56.59 18.06
  L 55.73 19.43"
/>
<path stroke="#d5d5d5" stroke-opacity="0.600" vector-effect="non-scaling-stroke" d="
  M 55.73 19.43
  L 52.52 22.18"
/>
<path stroke="#e6e6e6" stroke-opacity="0.557" vector-effect="non-scaling-stroke" d="
  M 52.52 22.18
  Q 49.56 23.02 46.98 22.00"
/>
<path stroke="#d5d5d5" stroke-opacity="0.600" vector-effect="non-scaling-stroke" d="
  M 46.98 22.00
  L 45.92 21.18"
/>
<path stroke="#e6e6e6" stroke-opacity="0.557" vector-effect="non-scaling-stroke" d="
  M 45.92 21.18
  Q 43.92 19.00 43.19 15.23"
/>
<path stroke="#e6e6e6" stroke-opacity="0.557" vector-effect="non-scaling-stroke" d="
  M 71.64 10.99
  Q 73.22 14.64 68.52 10.19
  A 1.47 1.45 -22.5 0 0 67.54 9.79
  C 65.56 9.74 64.74 11.09 64.71 13.01
  C 64.68 14.67 64.34 18.15 65.30 19.51
  C 67.26 22.31 70.23 18.63 71.70 17.46"
/>
<path stroke="#e6e6e6" stroke-opacity="0.557" vector-effect="non-scaling-stroke" d="
  M 71.71 20.97
  Q 71.82 21.31 71.79 21.63
  Q 71.73 22.16 71.20 22.05
  C 70.70 21.95 70.46 21.80 69.92 21.96
  Q 61.85 24.38 60.31 15.54"
/>
<path stroke="#00a5e5" stroke-opacity="0.553" vector-effect="non-scaling-stroke" d="
  M 70.71 32.42
  C 69.47 33.95 69.31 37.01 66.51 36.56
  Q 65.99 36.47 65.99 35.95
  L 65.99 32.52
  A 0.47 0.47 0.0 0 1 66.75 32.15
  L 68.08 33.21
  Q 68.64 33.67 68.63 32.94
  L 68.61 30.32
  A 0.49 0.49 0.0 0 0 67.94 29.87
  L 66.63 30.41
  Q 66.01 30.66 66.01 30.00
  L 65.99 27.65
  A 1.47 1.47 0.0 0 1 68.75 26.93
  L 70.11 29.40
  A 0.29 0.29 0.0 0 0 70.66 29.25
  L 70.51 25.37
  A 0.64 0.63 88.1 0 0 69.87 24.76
  L 62.44 24.79
  Q 62.06 24.79 62.16 25.16
  Q 62.29 25.63 62.76 26.07"
/>
<path stroke="#e6e6e6" stroke-opacity="0.557" vector-effect="non-scaling-stroke" d="
  M 97.72 10.29
  L 97.84 19.99
  A 1.08 1.08 0.0 0 0 99.42 20.93
  Q 100.83 20.20 101.35 18.48"
/>
<path stroke="#e6e6e6" stroke-opacity="0.557" vector-effect="non-scaling-stroke" d="
  M 103.50 18.38
  L 102.96 22.03
  Q 102.87 22.60 102.30 22.60
  L 92.97 22.59"
/>
<path stroke="#00a5e5" stroke-opacity="0.553" vector-effect="non-scaling-stroke" d="
  M 103.34 38.24
  Q 100.78 34.75 99.74 30.93
  Q 99.61 30.42 99.90 29.98
  L 102.97 25.36
  Q 103.37 24.76 102.65 24.73
  L 101.02 24.65
  A 0.45 0.44 -75.2 0 0 100.61 24.89
  L 97.22 31.15
  Q 96.78 31.95 96.64 31.05
  Q 96.18 28.16 97.06 25.41
  Q 97.23 24.86 96.67 24.74
  Q 94.73 24.30 93.17 24.94"
/>
<path stroke="#e6e6e6" stroke-opacity="0.557" vector-effect="non-scaling-stroke" d="
  M 88.72 22.55
  L 83.79 22.67
  Q 83.17 22.69 83.41 22.12
  Q 84.04 20.64 83.42 18.91
  A 2.02 2.02 0.0 0 0 79.51 19.41
  L 79.25 22.25
  Q 79.21 22.66 78.80 22.70
  Q 77.02 22.91 75.69 22.52"
/>
<path stroke="#00a5e5" stroke-opacity="0.553" vector-effect="non-scaling-stroke" d="
  M 86.23 32.79
  Q 85.39 32.95 85.34 33.61
  Q 85.15 36.71 82.21 36.56
  A 0.60 0.60 0.0 0 1 81.64 35.97
  L 81.62 32.47
  Q 81.61 31.34 82.43 32.12
  L 83.43 33.07
  A 0.44 0.44 0.0 0 0 84.18 32.76
  L 84.26 30.65
  Q 84.29 29.70 83.40 30.03
  L 82.44 30.37
  Q 81.64 30.67 81.64 29.82
  L 81.61 27.04
  A 0.79 0.79 0.0 0 1 82.44 26.25
  Q 84.73 26.35 85.29 28.62
  A 0.47 0.47 0.0 0 0 86.22 28.51
  L 86.26 25.43
  A 0.60 0.60 0.0 0 0 85.67 24.82
  L 77.95 24.77
  Q 77.56 24.76 77.77 25.10
  Q 78.91 26.91 78.65 28.84"
/>
</g>
<path fill="#00b7fe" fill-opacity="0.996" d="
  M 19.96 7.75
  Q 19.97 8.75 19.69 8.44
  Q 18.99 10.65 16.93 10.55
  Q 16.41 10.53 16.44 11.05
  Q 16.52 12.99 18.22 13.54
  Q 18.74 13.70 19.14 14.08
  L 23.55 18.36
  L 23.62 23.17
  L 14.61 13.31
  A 0.69 0.69 0.0 0 0 13.53 13.39
  L 11.77 15.99
  Q 11.14 16.91 11.00 15.80
  L 10.89 14.95
  Q 10.82 14.44 10.45 14.80
  Q 10.10 15.13 9.99 15.74
  Q 9.09 16.11 8.21 15.37
  Q 8.03 15.10 8.02 14.42
  Q 7.94 14.27 8.13 14.07
  Q 8.22 13.96 8.42 13.91
  Q 11.29 13.20 11.41 10.29
  Q 11.43 9.81 11.09 9.48
  L 4.38 2.84
  Q 3.57 0.99 5.74 0.94
  A 1.31 1.28 -21.2 0 1 6.72 1.36
  L 12.70 7.97
  Q 13.06 8.36 13.58 8.41
  Q 16.18 8.66 16.69 6.26
  A 1.23 1.23 0.0 0 1 19.10 6.28
  Q 19.29 7.19 18.30 7.65
  Q 17.84 7.86 18.31 8.05
  Q 19.35 8.47 19.96 7.75
  Z"
/>
<path fill="#000103" fill-opacity="0.110" d="
  M 4.38 2.84
  L 11.09 9.48
  Q 11.43 9.81 11.41 10.29
  Q 11.29 13.20 8.42 13.91
  Q 8.22 13.96 8.13 14.07
  Q 7.94 14.27 8.02 14.42
  Q 7.42 12.00 5.29 10.17
  Q 3.49 8.63 3.30 7.48
  Q 2.95 5.35 4.38 2.84
  Z"
/>
<path fill="#ffffff" d="
  M 34.43 9.18
  L 32.02 10.71
  Q 31.56 11.00 31.67 11.53
  Q 31.99 12.96 31.29 14.17
  Q 31.04 14.62 31.07 15.13
  L 31.80 27.22
  L 31.78 32.30
  Q 31.56 33.11 31.78 33.84
  Q 31.92 34.31 32.39 34.45
  Q 33.04 34.63 33.65 34.28
  L 37.41 38.17
  L 23.56 37.99
  L 19.15 37.94
  L 21.20 36.34
  Q 24.90 34.63 23.39 27.54
  L 23.62 23.17
  L 23.55 18.36
  L 23.51 11.45
  Q 23.51 10.90 23.05 10.60
  L 19.69 8.44
  Q 19.97 8.75 19.96 7.75
  L 35.39 7.79
  Q 36.06 7.79 35.55 8.22
  L 34.43 9.18
  Z"
/>
<path fill="#ffffff" d="
  M 56.59 18.06
  L 55.73 19.43
  L 52.52 22.18
  Q 49.56 23.02 46.98 22.00
  L 45.92 21.18
  Q 43.92 19.00 43.19 15.23
  C 45.71 3.81 59.16 6.79 56.59 18.06
  Z
  M 54.16 14.74
  C 55.64 8.80 48.23 6.61 46.12 11.45
  C 44.95 14.13 48.16 19.68 49.80 21.84
  Q 50.13 22.27 50.46 21.84
  Q 53.31 18.16 54.16 14.74
  Z"
/>
<path fill="#ffffff" d="
  M 71.64 10.99
  Q 73.22 14.64 68.52 10.19
  A 1.47 1.45 -22.5 0 0 67.54 9.79
  C 65.56 9.74 64.74 11.09 64.71 13.01
  C 64.68 14.67 64.34 18.15 65.30 19.51
  C 67.26 22.31 70.23 18.63 71.70 17.46
  L 71.71 20.97
  Q 71.82 21.31 71.79 21.63
  Q 71.73 22.16 71.20 22.05
  C 70.70 21.95 70.46 21.80 69.92 21.96
  Q 61.85 24.38 60.31 15.54
  C 60.32 11.20 63.67 7.67 68.16 7.99
  Q 73.37 8.37 71.64 10.99
  Z"
/>
<path fill="#ffffff" d="
  M 97.72 10.29
  L 97.84 19.99
  A 1.08 1.08 0.0 0 0 99.42 20.93
  Q 100.83 20.20 101.35 18.48
  L 102.80 15.75
  Q 103.16 15.07 103.24 15.84
  L 103.50 18.38
  L 102.96 22.03
  Q 102.87 22.60 102.30 22.60
  L 92.97 22.59
  Q 91.54 22.94 93.58 21.13
  A 1.19 1.18 69.0 0 0 93.98 20.22
  L 93.94 10.16
  Q 93.93 9.64 93.51 9.35
  L 92.55 8.67
  A 0.30 0.30 0.0 0 1 92.72 8.13
  L 99.00 8.10
  Q 99.73 8.10 99.16 8.55
  Q 98.21 9.29 97.72 10.29
  Z"
/>
<path fill="#ffffff" d="
  M 88.72 22.55
  L 83.79 22.67
  Q 83.17 22.69 83.41 22.12
  Q 84.04 20.64 83.42 18.91
  A 2.02 2.02 0.0 0 0 79.51 19.41
  L 79.25 22.25
  Q 79.21 22.66 78.80 22.70
  Q 77.02 22.91 75.69 22.52
  Q 78.77 16.96 80.18 10.61
  C 80.37 9.76 80.32 9.37 79.77 8.75
  Q 79.33 8.24 80.00 8.24
  L 83.45 8.23
  Q 83.89 8.23 84.02 8.65
  Q 85.27 12.77 86.10 16.97
  Q 86.51 19.04 88.72 22.55
  Z
  M 81.34 13.91
  Q 80.02 16.99 81.83 16.39
  A 0.65 0.65 0.0 0 0 82.27 15.67
  L 82.02 13.99
  Q 81.83 12.77 81.34 13.91
  Z"
/>
<path fill="#000103" fill-opacity="0.110" d="
  M 19.69 8.44
  L 23.05 10.60
  Q 23.51 10.90 23.51 11.45
  L 23.55 18.36
  L 19.14 14.08
  Q 18.74 13.70 18.22 13.54
  Q 16.52 12.99 16.44 11.05
  Q 16.41 10.53 16.93 10.55
  Q 18.99 10.65 19.69 8.44
  Z"
/>
<path fill="#000103" fill-opacity="0.110" d="
  M 34.43 9.18
  Q 34.38 10.85 34.89 10.95
  A 1.66 1.66 0.0 0 1 35.86 13.61
  C 34.45 15.37 33.20 16.99 33.15 19.38
  Q 33.03 24.35 34.03 29.26
  L 31.80 27.22
  L 31.07 15.13
  Q 31.04 14.62 31.29 14.17
  Q 31.99 12.96 31.67 11.53
  Q 31.56 11.00 32.02 10.71
  L 34.43 9.18
  Z"
/>
<path fill="#000103" fill-opacity="0.110" d="
  M 71.64 10.99
  Q 75.27 14.84 71.70 17.46
  C 70.23 18.63 67.26 22.31 65.30 19.51
  C 64.34 18.15 64.68 14.67 64.71 13.01
  C 64.74 11.09 65.56 9.74 67.54 9.79
  A 1.47 1.45 -22.5 0 1 68.52 10.19
  Q 73.22 14.64 71.64 10.99
  Z"
/>
<circle fill="#ffffff" cx="50.12" cy="12.70" r="2.64"/>
<path fill="#000103" fill-opacity="0.110" d="
  M 97.72 10.29
  C 101.35 10.40 100.35 14.05 99.87 16.25
  Q 99.38 18.49 101.35 18.48
  Q 100.83 20.20 99.42 20.93
  A 1.08 1.08 0.0 0 1 97.84 19.99
  L 97.72 10.29
  Z"
/>
<path fill="#000001" fill-opacity="0.196" d="
  M 23.62 23.17
  L 23.39 27.54
  Q 19.78 22.72 14.83 18.55
  Q 14.39 18.18 13.94 18.53
  Q 12.45 19.69 10.39 19.37
  A 1.12 1.11 -62.5 0 1 9.79 17.46
  Q 10.44 16.85 9.99 15.74
  Q 10.10 15.13 10.45 14.80
  Q 10.82 14.44 10.89 14.95
  L 11.00 15.80
  Q 11.14 16.91 11.77 15.99
  L 13.53 13.39
  A 0.69 0.69 0.0 0 1 14.61 13.31
  L 23.62 23.17
  Z"
/>
<path fill="#000103" fill-opacity="0.110" d="
  M 43.19 15.23
  Q 43.92 19.00 45.92 21.18
  Q 44.56 21.94 45.74 23.88
  A 0.65 0.65 0.0 0 0 46.92 23.35
  Q 46.74 22.76 46.98 22.00
  Q 49.56 23.02 52.52 22.18
  Q 53.15 22.42 53.20 22.84
  A 1.15 1.15 0.0 0 0 55.42 23.07
  Q 56.15 21.02 55.73 19.43
  L 56.59 18.06
  Q 57.92 22.21 54.77 24.29
  Q 54.48 24.48 54.73 24.73
  L 54.98 24.98
  Q 55.22 25.22 55.01 25.48
  Q 54.92 25.60 54.75 25.70
  C 47.62 22.68 45.09 27.86 46.12 33.72
  C 47.00 38.67 50.12 38.19 54.07 37.75
  Q 54.45 37.70 54.47 37.32
  L 54.67 31.35
  Q 54.69 30.77 54.11 30.76
  L 51.78 30.74
  Q 51.30 30.73 51.50 31.17
  Q 52.57 33.62 51.66 36.17
  A 0.63 0.62 -67.7 0 1 50.81 36.53
  C 47.73 35.07 48.64 30.04 49.41 27.30
  A 1.49 1.48 -60.1 0 1 51.86 26.63
  L 54.00 28.69
  Q 54.25 28.92 54.55 28.76
  Q 54.69 28.69 54.81 28.58
  L 55.94 30.15
  Q 56.22 30.55 56.19 31.03
  Q 56.02 33.50 56.41 35.87
  Q 56.72 37.81 54.23 39.54
  Q 50.79 41.91 46.86 43.37
  Q 46.41 43.54 46.88 44.02
  A 0.67 0.67 0.0 0 1 46.87 44.97
  Q 45.38 46.40 43.65 45.58
  Q 43.19 45.36 42.69 45.39
  Q 39.85 45.52 37.24 44.37
  A 1.76 1.73 52.0 0 0 36.31 44.25
  Q 31.56 45.02 28.17 43.68
  Q 23.03 41.63 20.53 41.01
  Q 20.07 40.90 19.93 40.45
  L 19.15 37.94
  L 23.56 37.99
  Q 23.01 39.44 23.39 40.34
  Q 23.59 40.84 24.12 40.94
  C 25.26 41.18 25.96 41.55 27.13 41.61
  Q 31.51 41.82 35.90 41.88
  C 37.66 41.90 38.61 42.54 39.79 43.68
  A 1.18 1.18 0.0 0 0 41.77 42.60
  Q 41.63 41.91 42.55 41.78
  Q 43.91 43.68 45.66 44.59
  Q 46.58 45.08 45.99 44.22
  L 41.87 38.26
  Q 42.50 38.22 42.97 37.97
  Q 43.55 37.65 43.08 37.18
  Q 41.70 35.79 42.92 34.34
  Q 43.26 33.94 43.24 33.41
  L 42.73 22.36
  Q 41.30 21.19 41.62 18.00
  Q 41.83 15.91 43.19 15.23
  Z"
/>
<path fill="#000103" fill-opacity="0.110" d="
  M 8.21 15.37
  Q 9.09 16.11 9.99 15.74
  Q 10.44 16.85 9.79 17.46
  A 1.12 1.11 -62.5 0 0 10.39 19.37
  Q 12.45 19.69 13.94 18.53
  Q 14.39 18.18 14.83 18.55
  Q 19.78 22.72 23.39 27.54
  Q 24.90 34.63 21.20 36.34
  C 23.64 29.01 20.13 25.09 14.56 21.05
  A 1.08 1.07 50.6 0 0 13.48 20.94
  Q 10.93 22.08 8.41 20.94
  A 1.12 1.10 6.1 0 1 7.78 20.17
  Q 7.25 17.82 8.21 15.37
  Z"
/>
<path fill="#000103" fill-opacity="0.110" d="
  M 60.31 15.54
  Q 61.85 24.38 69.92 21.96
  C 70.46 21.80 70.70 21.95 71.20 22.05
  Q 71.73 22.16 71.79 21.63
  Q 71.82 21.31 71.71 20.97
  Q 73.70 23.90 72.39 26.01
  Q 72.14 26.42 72.03 26.88
  L 70.71 32.42
  C 69.47 33.95 69.31 37.01 66.51 36.56
  Q 65.99 36.47 65.99 35.95
  L 65.99 32.52
  A 0.47 0.47 0.0 0 1 66.75 32.15
  L 68.08 33.21
  Q 68.64 33.67 68.63 32.94
  L 68.61 30.32
  A 0.49 0.49 0.0 0 0 67.94 29.87
  L 66.63 30.41
  Q 66.01 30.66 66.01 30.00
  L 65.99 27.65
  A 1.47 1.47 0.0 0 1 68.75 26.93
  L 70.11 29.40
  A 0.29 0.29 0.0 0 0 70.66 29.25
  L 70.51 25.37
  A 0.64 0.63 88.1 0 0 69.87 24.76
  L 62.44 24.79
  Q 62.06 24.79 62.16 25.16
  Q 62.29 25.63 62.76 26.07
  Q 60.93 25.77 61.44 23.80
  Q 61.56 23.35 61.30 22.97
  Q 60.19 21.35 59.85 19.74
  Q 59.73 19.14 60.26 18.85
  Q 60.67 18.62 60.50 18.19
  Q 60.00 16.90 60.31 15.54
  Z"
/>
<path fill="#000103" fill-opacity="0.110" d="
  M 88.72 22.55
  Q 88.71 26.12 87.64 27.72
  Q 87.32 28.20 87.40 28.77
  Q 87.55 29.82 86.77 30.48
  Q 86.42 30.78 86.38 31.23
  L 86.23 32.79
  Q 85.39 32.95 85.34 33.61
  Q 85.15 36.71 82.21 36.56
  A 0.60 0.60 0.0 0 1 81.64 35.97
  L 81.62 32.47
  Q 81.61 31.34 82.43 32.12
  L 83.43 33.07
  A 0.44 0.44 0.0 0 0 84.18 32.76
  L 84.26 30.65
  Q 84.29 29.70 83.40 30.03
  L 82.44 30.37
  Q 81.64 30.67 81.64 29.82
  L 81.61 27.04
  A 0.79 0.79 0.0 0 1 82.44 26.25
  Q 84.73 26.35 85.29 28.62
  A 0.47 0.47 0.0 0 0 86.22 28.51
  L 86.26 25.43
  A 0.60 0.60 0.0 0 0 85.67 24.82
  L 77.95 24.77
  Q 77.56 24.76 77.77 25.10
  Q 78.91 26.91 78.65 28.84
  Q 77.94 26.80 75.95 26.95
  Q 75.35 27.00 75.24 26.41
  Q 74.83 24.29 75.69 22.52
  Q 77.02 22.91 78.80 22.70
  Q 79.21 22.66 79.25 22.25
  L 79.51 19.41
  A 2.02 2.02 0.0 0 1 83.42 18.91
  Q 84.04 20.64 83.41 22.12
  Q 83.17 22.69 83.79 22.67
  L 88.72 22.55
  Z"
/>
<path fill="#000103" fill-opacity="0.110" d="
  M 103.50 18.38
  Q 106.41 22.40 104.25 28.51
  A 1.13 1.10 -51.7 0 0 104.35 29.47
  Q 104.90 30.35 104.87 31.39
  Q 104.86 31.87 104.52 32.21
  Q 102.48 34.23 103.34 38.24
  Q 100.78 34.75 99.74 30.93
  Q 99.61 30.42 99.90 29.98
  L 102.97 25.36
  Q 103.37 24.76 102.65 24.73
  L 101.02 24.65
  A 0.45 0.44 -75.2 0 0 100.61 24.89
  L 97.22 31.15
  Q 96.78 31.95 96.64 31.05
  Q 96.18 28.16 97.06 25.41
  Q 97.23 24.86 96.67 24.74
  Q 94.73 24.30 93.17 24.94
  Q 91.81 24.82 93.66 23.71
  Q 94.02 23.50 93.71 23.23
  L 92.97 22.59
  L 102.30 22.60
  Q 102.87 22.60 102.96 22.03
  L 103.50 18.38
  Z"
/>
<path fill="#000001" fill-opacity="0.196" d="
  M 55.73 19.43
  Q 56.15 21.02 55.42 23.07
  A 1.15 1.15 0.0 0 1 53.20 22.84
  Q 53.15 22.42 52.52 22.18
  L 55.73 19.43
  Z"
/>
<path fill="#000001" fill-opacity="0.196" d="
  M 45.92 21.18
  L 46.98 22.00
  Q 46.74 22.76 46.92 23.35
  A 0.65 0.65 0.0 0 1 45.74 23.88
  Q 44.56 21.94 45.92 21.18
  Z"
/>
<path fill="#ffffff" d="
  M 42.73 22.36
  L 43.24 33.41
  Q 43.26 33.94 42.92 34.34
  Q 41.70 35.79 43.08 37.18
  Q 43.55 37.65 42.97 37.97
  Q 42.50 38.22 41.87 38.26
  Q 39.18 36.12 37.50 32.66
  L 42.73 22.36
  Z"
/>
<path fill="#00b7fe" fill-opacity="0.996" d="
  M 70.71 32.42
  L 70.59 37.82
  Q 70.58 38.36 70.04 38.35
  L 62.26 38.18
  Q 61.75 38.17 62.02 37.74
  C 63.72 35.11 63.15 28.96 62.76 26.07
  Q 62.29 25.63 62.16 25.16
  Q 62.06 24.79 62.44 24.79
  L 69.87 24.76
  A 0.64 0.63 88.1 0 1 70.51 25.37
  L 70.66 29.25
  A 0.29 0.29 0.0 0 1 70.11 29.40
  L 68.75 26.93
  A 1.47 1.47 0.0 0 0 65.99 27.65
  L 66.01 30.00
  Q 66.01 30.66 66.63 30.41
  L 67.94 29.87
  A 0.49 0.49 0.0 0 1 68.61 30.32
  L 68.63 32.94
  Q 68.64 33.67 68.08 33.21
  L 66.75 32.15
  A 0.47 0.47 0.0 0 0 65.99 32.52
  L 65.99 35.95
  Q 65.99 36.47 66.51 36.56
  C 69.31 37.01 69.47 33.95 70.71 32.42
  Z"
/>
<path fill="#00b7fe" fill-opacity="0.996" d="
  M 86.23 32.79
  L 86.28 37.89
  Q 86.29 38.42 85.76 38.42
  L 78.27 38.41
  Q 77.80 38.41 77.92 37.95
  Q 79.11 33.38 78.65 28.84
  Q 78.91 26.91 77.77 25.10
  Q 77.56 24.76 77.95 24.77
  L 85.67 24.82
  A 0.60 0.60 0.0 0 1 86.26 25.43
  L 86.22 28.51
  A 0.47 0.47 0.0 0 1 85.29 28.62
  Q 84.73 26.35 82.44 26.25
  A 0.79 0.79 0.0 0 0 81.61 27.04
  L 81.64 29.82
  Q 81.64 30.67 82.44 30.37
  L 83.40 30.03
  Q 84.29 29.70 84.26 30.65
  L 84.18 32.76
  A 0.44 0.44 0.0 0 1 83.43 33.07
  L 82.43 32.12
  Q 81.61 31.34 81.62 32.47
  L 81.64 35.97
  A 0.60 0.60 0.0 0 0 82.21 36.56
  Q 85.15 36.71 85.34 33.61
  Q 85.39 32.95 86.23 32.79
  Z"
/>
<path fill="#00b7fe" fill-opacity="0.996" d="
  M 103.34 38.24
  Q 101.22 38.87 99.04 38.37
  Q 98.54 38.25 98.70 37.77
  Q 99.37 35.67 98.09 33.85
  A 0.57 0.56 44.8 0 0 97.16 33.85
  Q 95.86 35.78 97.33 37.54
  A 0.49 0.49 0.0 0 1 96.96 38.34
  L 93.66 38.39
  Q 93.01 38.40 93.18 37.77
  Q 94.92 31.35 93.17 24.94
  Q 94.73 24.30 96.67 24.74
  Q 97.23 24.86 97.06 25.41
  Q 96.18 28.16 96.64 31.05
  Q 96.78 31.95 97.22 31.15
  L 100.61 24.89
  A 0.45 0.44 -75.2 0 1 101.02 24.65
  L 102.65 24.73
  Q 103.37 24.76 102.97 25.36
  L 99.90 29.98
  Q 99.61 30.42 99.74 30.93
  Q 100.78 34.75 103.34 38.24
  Z"
/>
<path fill="#00b7fe" fill-opacity="0.996" d="
  M 54.75 25.70
  Q 54.15 27.13 54.81 28.58
  Q 54.69 28.69 54.55 28.76
  Q 54.25 28.92 54.00 28.69
  L 51.86 26.63
  A 1.49 1.48 -60.1 0 0 49.41 27.30
  C 48.64 30.04 47.73 35.07 50.81 36.53
  A 0.63 0.62 -67.7 0 0 51.66 36.17
  Q 52.57 33.62 51.50 31.17
  Q 51.30 30.73 51.78 30.74
  L 54.11 30.76
  Q 54.69 30.77 54.67 31.35
  L 54.47 37.32
  Q 54.45 37.70 54.07 37.75
  C 50.12 38.19 47.00 38.67 46.12 33.72
  C 45.09 27.86 47.62 22.68 54.75 25.70
  Z"
/>
<path fill="#00b7fe" fill-opacity="0.996" d="
  M 31.80 27.22
  L 34.03 29.26
  L 37.50 32.66
  Q 39.18 36.12 41.87 38.26
  L 45.99 44.22
  Q 46.58 45.08 45.66 44.59
  Q 43.91 43.68 42.55 41.78
  L 37.41 38.17
  L 33.65 34.28
  L 31.78 32.30
  L 31.80 27.22
  Z"
/>
<path fill="#000103" fill-opacity="0.110" d="
  M 31.78 32.30
  L 33.65 34.28
  Q 33.04 34.63 32.39 34.45
  Q 31.92 34.31 31.78 33.84
  Q 31.56 33.11 31.78 32.30
  Z"
/>
<path fill="#000001" fill-opacity="0.196" d="
  M 23.56 37.99
  L 37.41 38.17
  L 42.55 41.78
  Q 41.63 41.91 41.77 42.60
  A 1.18 1.18 0.0 0 1 39.79 43.68
  C 38.61 42.54 37.66 41.90 35.90 41.88
  Q 31.51 41.82 27.13 41.61
  C 25.96 41.55 25.26 41.18 24.12 40.94
  Q 23.59 40.84 23.39 40.34
  Q 23.01 39.44 23.56 37.99
  Z"
/>
</svg>
